<svg xmlns="http://www.w3.org/2000/svg" width="1920" height="1080"><path d="M1033,749L1121,631L979,458Z" fill="#8d8bc0" stroke="#8d8bc0" stroke-width="1.51"/><path d="M979,458L819,569L1033,749Z" fill="#8d93c4" stroke="#8d93c4" stroke-width="1.51"/><path d="M710,982L1042,1042L1033,749Z" fill="#8e7ab8" stroke="#8e7ab8" stroke-width="1.51"/><path d="M979,458L767,528L819,569Z" fill="#8f9dca" stroke="#8f9dca" stroke-width="1.51"/><path d="M979,458L835,269L767,528Z" fill="#93a3cd" stroke="#93a3cd" stroke-width="1.51"/><path d="M1162,292L835,269L979,458Z" fill="#93a2cc" stroke="#93a2cc" stroke-width="1.51"/><path d="M1121,631L1162,292L979,458Z" fill="#8f94c5" stroke="#8f94c5" stroke-width="1.51"/><path d="M1033,749L1308,881L1121,631Z" fill="#8d7ab8" stroke="#8d7ab8" stroke-width="1.51"/><path d="M1121,631L1402,534L1162,292Z" fill="#8f8bc0" stroke="#8f8bc0" stroke-width="1.51"/><path d="M710,982L1033,749L819,569Z" fill="#8f8ac0" stroke="#8f8ac0" stroke-width="1.51"/><path d="M1033,749L1042,1042L1308,881Z" fill="#8c71b3" stroke="#8c71b3" stroke-width="1.51"/><path d="M1308,881L1402,534L1121,631Z" fill="#8d78b7" stroke="#8d78b7" stroke-width="1.51"/><path d="M490,669L710,982L819,569Z" fill="#9494c6" stroke="#9494c6" stroke-width="1.51"/><path d="M767,528L490,669L819,569Z" fill="#939fcb" stroke="#939fcb" stroke-width="1.51"/><path d="M302,271L490,669L767,528Z" fill="#9aaed3" stroke="#9aaed3" stroke-width="1.51"/><path d="M1578,1266L1431,836L1308,881Z" fill="#8b57a7" stroke="#8b57a7" stroke-width="1.51"/><path d="M710,982L958,1116L1042,1042Z" fill="#8e72b4" stroke="#8e72b4" stroke-width="1.51"/><path d="M1308,881L1431,836L1402,534Z" fill="#8d6eb2" stroke="#8d6eb2" stroke-width="1.51"/><path d="M1249,1251L1308,881L1042,1042Z" fill="#8b60ab" stroke="#8b60ab" stroke-width="1.51"/><path d="M835,269L302,271L767,528Z" fill="#9ab3d6" stroke="#9ab3d6" stroke-width="1.51"/><path d="M1162,292L776,57L835,269Z" fill="#9aaed2" stroke="#9aaed2" stroke-width="1.51"/><path d="M710,982L595,1128L958,1116Z" fill="#9278b7" stroke="#9278b7" stroke-width="1.51"/><path d="M490,669L489,962L710,982Z" fill="#9790c3" stroke="#9790c3" stroke-width="1.51"/><path d="M1431,836L1598,710L1402,534Z" fill="#8c6db1" stroke="#8c6db1" stroke-width="1.51"/><path d="M1618,145L1301,41L1162,292Z" fill="#9d97c7" stroke="#9d97c7" stroke-width="1.51"/><path d="M489,962L595,1128L710,982Z" fill="#9783bd" stroke="#9783bd" stroke-width="1.51"/><path d="M1162,292L1301,41L776,57Z" fill="#9ea8cf" stroke="#9ea8cf" stroke-width="1.51"/><path d="M1618,145L1162,292L1402,534Z" fill="#958cc2" stroke="#958cc2" stroke-width="1.51"/><path d="M958,1116L1249,1251L1042,1042Z" fill="#8c62aa" stroke="#8c62aa" stroke-width="1.51"/><path d="M1431,836L1813,907L1598,710Z" fill="#8b5ba9" stroke="#8b5ba9" stroke-width="1.51"/><path d="M1022,1397L1249,1251L958,1116Z" fill="#8b5ba3" stroke="#8b5ba3" stroke-width="1.51"/><path d="M388,71L302,271L835,269Z" fill="#a6c1dd" stroke="#a6c1dd" stroke-width="1.51"/><path d="M115,959L381,1171L489,962Z" fill="#a28bc1" stroke="#a28bc1" stroke-width="1.51"/><path d="M776,57L388,71L835,269Z" fill="#a5bedb" stroke="#a5bedb" stroke-width="1.51"/><path d="M896,-217L773,-124L776,57Z" fill="#afc0dd" stroke="#afc0dd" stroke-width="1.51"/><path d="M1598,710L1734,578L1402,534Z" fill="#8d6eb2" stroke="#8d6eb2" stroke-width="1.51"/><path d="M1813,907L1734,578L1598,710Z" fill="#8b5da9" stroke="#8b5da9" stroke-width="1.51"/><path d="M595,1128L1022,1397L958,1116Z" fill="#8f6aab" stroke="#8f6aab" stroke-width="1.51"/><path d="M773,-124L388,71L776,57Z" fill="#adc4df" stroke="#adc4df" stroke-width="1.51"/><path d="M1779,410L1618,145L1402,534Z" fill="#937fba" stroke="#937fba" stroke-width="1.51"/><path d="M595,1128L575,1516L1022,1397Z" fill="#9268a6" stroke="#9268a6" stroke-width="1.51"/><path d="M489,962L381,1171L595,1128Z" fill="#9b82bc" stroke="#9b82bc" stroke-width="1.51"/><path d="M148,653L489,962L490,669Z" fill="#9f9ecb" stroke="#9f9ecb" stroke-width="1.51"/><path d="M302,271L148,653L490,669Z" fill="#a2b2d5" stroke="#a2b2d5" stroke-width="1.51"/><path d="M1236,-250L896,-217L1301,41Z" fill="#afb0d5" stroke="#afb0d5" stroke-width="1.51"/><path d="M1301,41L896,-217L776,57Z" fill="#a8b4d6" stroke="#a8b4d6" stroke-width="1.51"/><path d="M773,-124L341,-72L388,71Z" fill="#b5cce3" stroke="#b5cce3" stroke-width="1.51"/><path d="M1734,578L1779,410L1402,534Z" fill="#8e73b4" stroke="#8e73b4" stroke-width="1.51"/><path d="M302,271L174,285L148,653Z" fill="#abbedb" stroke="#abbedb" stroke-width="1.51"/><path d="M83,164L174,285L302,271Z" fill="#b2cae1" stroke="#b2cae1" stroke-width="1.51"/><path d="M1578,1266L1813,907L1431,836Z" fill="#894ca2" stroke="#894ca2" stroke-width="1.51"/><path d="M1022,1397L1258,1429L1249,1251Z" fill="#884e99" stroke="#884e99" stroke-width="1.51"/><path d="M1578,1266L1308,881L1249,1251Z" fill="#8a51a2" stroke="#8a51a2" stroke-width="1.51"/><path d="M1734,578L2134,649L1779,410Z" fill="#8c65a9" stroke="#8c65a9" stroke-width="1.51"/><path d="M1258,1429L1578,1266L1249,1251Z" fill="#894597" stroke="#894597" stroke-width="1.51"/><path d="M1268,-318L1236,-250L1433,-325Z" fill="#b8acd3" stroke="#b8acd3" stroke-width="1.51"/><path d="M148,653L115,959L489,962Z" fill="#a59ac9" stroke="#a59ac9" stroke-width="1.51"/><path d="M-2,1195L115,959L-157,1039Z" fill="#b093c6" stroke="#b093c6" stroke-width="1.51"/><path d="M388,71L83,164L302,271Z" fill="#b4cbe2" stroke="#b4cbe2" stroke-width="1.51"/><path d="M416,-359L341,-72L773,-124Z" fill="#bed2e7" stroke="#bed2e7" stroke-width="1.51"/><path d="M1513,-231L1236,-250L1301,41Z" fill="#afa4cf" stroke="#afa4cf" stroke-width="1.51"/><path d="M1236,-250L1268,-318L896,-217Z" fill="#b6b6d8" stroke="#b6b6d8" stroke-width="1.51"/><path d="M896,-217L816,-405L773,-124Z" fill="#b9c6e0" stroke="#b9c6e0" stroke-width="1.51"/><path d="M1658,1519L1658,1314L1578,1266Z" fill="#84318c" stroke="#84318c" stroke-width="1.51"/><path d="M1578,1266L1658,1314L1813,907Z" fill="#873c98" stroke="#873c98" stroke-width="1.51"/><path d="M381,1171L575,1516L595,1128Z" fill="#9976b0" stroke="#9976b0" stroke-width="1.51"/><path d="M1022,1397L1018,1724L1258,1429Z" fill="#794c8c" stroke="#794c8c" stroke-width="1.51"/><path d="M313,1395L575,1516L381,1171Z" fill="#9b73ab" stroke="#9b73ab" stroke-width="1.51"/><path d="M-243,449L-233,762L148,653Z" fill="#b5b8d9" stroke="#b5b8d9" stroke-width="1.51"/><path d="M341,-72L83,164L388,71Z" fill="#bacfe4" stroke="#bacfe4" stroke-width="1.51"/><path d="M1966,67L1860,154L2168,391Z" fill="#9a75af" stroke="#9a75af" stroke-width="1.51"/><path d="M1779,410L1860,154L1618,145Z" fill="#997fba" stroke="#997fba" stroke-width="1.51"/><path d="M1618,145L1513,-231L1301,41Z" fill="#a897c8" stroke="#a897c8" stroke-width="1.51"/><path d="M1762,-78L1513,-231L1618,145Z" fill="#aa90c5" stroke="#aa90c5" stroke-width="1.51"/><path d="M89,1194L313,1395L381,1171Z" fill="#a47eb5" stroke="#a47eb5" stroke-width="1.51"/><path d="M829,-429L816,-405L896,-217Z" fill="#bdc9e1" stroke="#bdc9e1" stroke-width="1.51"/><path d="M1268,-318L829,-429L896,-217Z" fill="#b9bfdd" stroke="#b9bfdd" stroke-width="1.51"/><path d="M1513,-231L1433,-325L1236,-250Z" fill="#b7a7d1" stroke="#b7a7d1" stroke-width="1.51"/><path d="M1724,-446L1433,-325L1513,-231Z" fill="#b9a0cd" stroke="#b9a0cd" stroke-width="1.51"/><path d="M816,-405L416,-359L773,-124Z" fill="#bfd1e6" stroke="#bfd1e6" stroke-width="1.51"/><path d="M1724,-446L829,-429L1268,-318Z" fill="#bcb1d6" stroke="#bcb1d6" stroke-width="1.51"/><path d="M1860,154L1762,-78L1618,145Z" fill="#a286be" stroke="#a286be" stroke-width="1.51"/><path d="M115,959L89,1194L381,1171Z" fill="#a78ac0" stroke="#a78ac0" stroke-width="1.51"/><path d="M-2,1195L89,1194L115,959Z" fill="#ad8dc2" stroke="#ad8dc2" stroke-width="1.51"/><path d="M685,1733L1022,1397L575,1516Z" fill="#7c5d92" stroke="#7c5d92" stroke-width="1.51"/><path d="M685,1733L1018,1724L1022,1397Z" fill="#715287" stroke="#715287" stroke-width="1.51"/><path d="M1576,1593L1658,1519L1578,1266Z" fill="#7b2f84" stroke="#7b2f84" stroke-width="1.51"/><path d="M341,-72L-28,77L83,164Z" fill="#c0d3e7" stroke="#c0d3e7" stroke-width="1.51"/><path d="M829,-429L416,-359L816,-405Z" fill="#c2d2e7" stroke="#c2d2e7" stroke-width="1.51"/><path d="M-243,449L148,653L174,285Z" fill="#b1c0dd" stroke="#b1c0dd" stroke-width="1.51"/><path d="M192,-266L-28,77L341,-72Z" fill="#c7d9e9" stroke="#c7d9e9" stroke-width="1.51"/><path d="M163,1633L248,1599L313,1395Z" fill="#90709c" stroke="#90709c" stroke-width="1.51"/><path d="M-157,1039L115,959L-233,762Z" fill="#b4a0cd" stroke="#b4a0cd" stroke-width="1.51"/><path d="M1860,154L1966,67L1762,-78Z" fill="#a381b9" stroke="#a381b9" stroke-width="1.51"/><path d="M1762,-78L1724,-446L1513,-231Z" fill="#b697c9" stroke="#b697c9" stroke-width="1.51"/><path d="M2168,391L1860,154L1779,410Z" fill="#9572ae" stroke="#9572ae" stroke-width="1.51"/><path d="M1576,1593L1578,1266L1258,1429Z" fill="#7f398a" stroke="#7f398a" stroke-width="1.51"/><path d="M2019,1316L2091,826L1813,907Z" fill="#863893" stroke="#863893" stroke-width="1.51"/><path d="M1813,907L2091,826L1734,578Z" fill="#8a51a0" stroke="#8a51a0" stroke-width="1.51"/><path d="M2019,1316L1813,907L1658,1314Z" fill="#863390" stroke="#863390" stroke-width="1.51"/><path d="M1541,1738L1576,1593L1258,1429Z" fill="#6f347c" stroke="#6f347c" stroke-width="1.51"/><path d="M320,1817L685,1733L575,1516Z" fill="#7c6490" stroke="#7c6490" stroke-width="1.51"/><path d="M248,1599L575,1516L313,1395Z" fill="#8e6d9e" stroke="#8e6d9e" stroke-width="1.51"/><path d="M2091,826L2134,649L1734,578Z" fill="#8b549f" stroke="#8b549f" stroke-width="1.51"/><path d="M416,-359L192,-266L341,-72Z" fill="#cadbea" stroke="#cadbea" stroke-width="1.51"/><path d="M-233,762L115,959L148,653Z" fill="#b0a6d0" stroke="#b0a6d0" stroke-width="1.51"/><path d="M1018,1724L1141,1807L1258,1429Z" fill="#6f4581" stroke="#6f4581" stroke-width="1.51"/><path d="M685,1733L1141,1807L1018,1724Z" fill="#705186" stroke="#705186" stroke-width="1.51"/><path d="M-243,449L174,285L83,164Z" fill="#b7cde3" stroke="#b7cde3" stroke-width="1.51"/><path d="M2134,649L2168,391L1779,410Z" fill="#8e62a4" stroke="#8e62a4" stroke-width="1.51"/><path d="M-28,77L-243,449L83,164Z" fill="#bed2e7" stroke="#bed2e7" stroke-width="1.51"/><path d="M163,1633L89,1194L-2,1195Z" fill="#ab7eb3" stroke="#ab7eb3" stroke-width="1.51"/><path d="M163,1633L313,1395L89,1194Z" fill="#a078ab" stroke="#a078ab" stroke-width="1.51"/><path d="M2289,129L1977,-124L1966,67Z" fill="#a379af" stroke="#a379af" stroke-width="1.51"/><path d="M1966,67L1977,-124L1762,-78Z" fill="#a983b9" stroke="#a983b9" stroke-width="1.51"/><path d="M1576,1593L1825,1848L1658,1519Z" fill="#6a2473" stroke="#6a2473" stroke-width="1.51"/><path d="M1996,1501L2019,1316L1658,1314Z" fill="#801f81" stroke="#801f81" stroke-width="1.51"/><path d="M1141,1807L1541,1738L1258,1429Z" fill="#6d3b7d" stroke="#6d3b7d" stroke-width="1.51"/><path d="M1996,1501L1658,1314L1658,1519Z" fill="#7a2480" stroke="#7a2480" stroke-width="1.51"/><path d="M2291,704L2276,457L2134,649Z" fill="#7f5292" stroke="#7f5292" stroke-width="1.51"/><path d="M1977,-124L1724,-446L1762,-78Z" fill="#b38ec1" stroke="#b38ec1" stroke-width="1.51"/><path d="M1433,-325L1724,-446L1268,-318Z" fill="#bba5d0" stroke="#bba5d0" stroke-width="1.51"/><path d="M-243,449L-328,715L-233,762Z" fill="#babada" stroke="#babada" stroke-width="1.51"/><path d="M-233,762L-326,835L-157,1039Z" fill="#b9a7d1" stroke="#b9a7d1" stroke-width="1.51"/><path d="M248,1599L320,1817L575,1516Z" fill="#826893" stroke="#826893" stroke-width="1.51"/><path d="M-236,1478L163,1633L-2,1195Z" fill="#a67dab" stroke="#a67dab" stroke-width="1.51"/><path d="M2168,391L2289,129L1966,67Z" fill="#946fa6" stroke="#946fa6" stroke-width="1.51"/><path d="M2134,649L2276,457L2168,391Z" fill="#845b99" stroke="#845b99" stroke-width="1.51"/><path d="M2291,704L2134,649L2091,826Z" fill="#824992" stroke="#824992" stroke-width="1.51"/><path d="M-157,1039L-397,1154L-2,1195Z" fill="#b794c6" stroke="#b794c6" stroke-width="1.51"/><path d="M-328,715L-326,835L-233,762Z" fill="#bbb0d6" stroke="#bbb0d6" stroke-width="1.51"/><path d="M2322,940L2291,704L2091,826Z" fill="#7c3f8a" stroke="#7c3f8a" stroke-width="1.51"/><path d="M416,-359L220,-511L192,-266Z" fill="#d2e1ee" stroke="#d2e1ee" stroke-width="1.51"/><path d="M-214,-222L-360,229L-28,77Z" fill="#d0dfed" stroke="#d0dfed" stroke-width="1.51"/><path d="M-28,77L-360,229L-243,449Z" fill="#c2d6e8" stroke="#c2d6e8" stroke-width="1.51"/><path d="M829,-429L220,-511L416,-359Z" fill="#cbdceb" stroke="#cbdceb" stroke-width="1.51"/><path d="M1724,-446L220,-511L829,-429Z" fill="#c0c8e1" stroke="#c0c8e1" stroke-width="1.51"/><path d="M2329,1140L2322,940L2091,826Z" fill="#793284" stroke="#793284" stroke-width="1.51"/><path d="M1825,1848L1996,1501L1658,1519Z" fill="#691b6d" stroke="#691b6d" stroke-width="1.51"/><path d="M163,1633L320,1817L248,1599Z" fill="#886c95" stroke="#886c95" stroke-width="1.51"/><path d="M685,1733L320,1817L1141,1807Z" fill="#765c8c" stroke="#765c8c" stroke-width="1.51"/><path d="M-243,449L-507,296L-328,715Z" fill="#bfc8e1" stroke="#bfc8e1" stroke-width="1.51"/><path d="M-507,296L-397,1154L-326,835Z" fill="#beb3d7" stroke="#beb3d7" stroke-width="1.51"/><path d="M-214,-222L-28,77L192,-266Z" fill="#d2e1ee" stroke="#d2e1ee" stroke-width="1.51"/><path d="M2368,-202L2289,129L2276,457Z" fill="#8b6c9b" stroke="#8b6c9b" stroke-width="1.51"/><path d="M2329,1140L2091,826L2019,1316Z" fill="#7f2986" stroke="#7f2986" stroke-width="1.51"/><path d="M2276,457L2289,129L2168,391Z" fill="#86659b" stroke="#86659b" stroke-width="1.51"/><path d="M1977,-124L2043,-301L1724,-446Z" fill="#b68dbf" stroke="#b68dbf" stroke-width="1.51"/><path d="M2368,-202L2276,457L2291,704Z" fill="#826396" stroke="#826396" stroke-width="1.51"/><path d="M2368,-202L2043,-301L1977,-124Z" fill="#ad81b1" stroke="#ad81b1" stroke-width="1.51"/><path d="M-148,-504L-214,-222L192,-266Z" fill="#dfebf4" stroke="#dfebf4" stroke-width="1.51"/><path d="M2255,1382L2329,1140L2019,1316Z" fill="#781577" stroke="#781577" stroke-width="1.51"/><path d="M-507,296L-326,835L-328,715Z" fill="#bebfdd" stroke="#bebfdd" stroke-width="1.51"/><path d="M-326,835L-397,1154L-157,1039Z" fill="#bb9ecd" stroke="#bb9ecd" stroke-width="1.51"/><path d="M163,1633L-184,1797L320,1817Z" fill="#8e7098" stroke="#8e7098" stroke-width="1.51"/><path d="M-397,1154L-236,1478L-2,1195Z" fill="#b78bbd" stroke="#b78bbd" stroke-width="1.51"/><path d="M2119,1810L2255,1382L1996,1501Z" fill="#670664" stroke="#670664" stroke-width="1.51"/><path d="M1996,1501L2255,1382L2019,1316Z" fill="#7a0d75" stroke="#7a0d75" stroke-width="1.51"/><path d="M1541,1738L1825,1848L1576,1593Z" fill="#6b2674" stroke="#6b2674" stroke-width="1.51"/><path d="M1141,1807L1825,1848L1541,1738Z" fill="#6c3078" stroke="#6c3078" stroke-width="1.51"/><path d="M320,1817L1825,1848L1141,1807Z" fill="#6f4882" stroke="#6f4882" stroke-width="1.51"/><path d="M-360,229L-507,296L-243,449Z" fill="#c5d4e8" stroke="#c5d4e8" stroke-width="1.51"/><path d="M-337,-234L-507,296L-360,229Z" fill="#d2e1ee" stroke="#d2e1ee" stroke-width="1.51"/><path d="M-338,-462L-337,-234L-214,-222Z" fill="#e6f0f6" stroke="#e6f0f6" stroke-width="1.51"/><path d="M-214,-222L-337,-234L-360,229Z" fill="#dae6f1" stroke="#dae6f1" stroke-width="1.51"/><path d="M220,-511L-148,-504L192,-266Z" fill="#dde9f2" stroke="#dde9f2" stroke-width="1.51"/><path d="M2289,129L2368,-202L1977,-124Z" fill="#9e77a8" stroke="#9e77a8" stroke-width="1.51"/><path d="M2043,-301L2245,-407L1724,-446Z" fill="#ba8bbc" stroke="#ba8bbc" stroke-width="1.51"/><path d="M2322,940L2368,-202L2291,704Z" fill="#7a5890" stroke="#7a5890" stroke-width="1.51"/><path d="M2329,1140L2368,-202L2322,940Z" fill="#764c8a" stroke="#764c8a" stroke-width="1.51"/><path d="M2368,-202L2245,-407L2043,-301Z" fill="#aa80ac" stroke="#aa80ac" stroke-width="1.51"/><path d="M-428,1582L-184,1797L-236,1478Z" fill="#9b7a9d" stroke="#9b7a9d" stroke-width="1.51"/><path d="M-236,1478L-184,1797L163,1633Z" fill="#95769b" stroke="#95769b" stroke-width="1.51"/><path d="M1825,1848L2119,1810L1996,1501Z" fill="#670f67" stroke="#670f67" stroke-width="1.51"/><path d="M-148,-504L-338,-462L-214,-222Z" fill="#e8f2f7" stroke="#e8f2f7" stroke-width="1.51"/><path d="M-337,-234L-338,-462L-507,296Z" fill="#e0ebf3" stroke="#e0ebf3" stroke-width="1.51"/><path d="M-507,296L-428,1582L-397,1154Z" fill="#bfa1ce" stroke="#bfa1ce" stroke-width="1.51"/><path d="M-397,1154L-428,1582L-236,1478Z" fill="#b486b3" stroke="#b486b3" stroke-width="1.51"/><path d="M1825,1848L2277,1830L2119,1810Z" fill="#660662" stroke="#660662" stroke-width="1.51"/><path d="M2119,1810L2277,1830L2255,1382Z" fill="#5c0359" stroke="#5c0359" stroke-width="1.51"/><path d="M2255,1382L2277,1830L2329,1140Z" fill="#670563" stroke="#670563" stroke-width="1.51"/><path d="M-428,1582L-417,1744L-184,1797Z" fill="#9d7b9e" stroke="#9d7b9e" stroke-width="1.51"/></svg>